<svg version="1.0" xmlns="http://www.w3.org/2000/svg" width="300" height="300" viewBox="0 0 225 225"><path d="M109.3 14.9c-6.7 3.1-9.1 9.8-5.7 16.4.9 1.7 7 8.6 13.4 15.3 7.8 8.1 12.2 13.4 13 15.9 1.6 5 .8 11.8-2 15.8-2.5 3.7-7.9 7.9-9.2 7.1-.4-.3-.8-6.6-.8-14s-.3-13.4-.6-13.4c-1.9 0-15.3 10.1-21.2 16-7.7 7.7-13 15.1-17.8 25-3.6 7.4-7 17.7-6.2 18.5.3.4 8.7-3.5 18.7-8.4 9.9-5 18.3-9.1 18.6-9.1.3 0 .5 12.3.5 27.3v27.3l4 3.9 4 3.9V94.3l4.1-1.9c13.5-6 19.6-22 13.5-34.9-1.5-3.1-7-9.8-14.5-17.7-6.7-7-12.1-13.1-12.1-13.6 0-1.9 3.3-5.2 5.3-5.2 1.4 0 6.5 4.5 15.5 13.7 14.4 14.8 14.4 14.7 1.6-5.7-9.3-14.9-13.9-17.8-22.1-14.1zm.7 66.6V91l-12.1 6.1c-6.7 3.3-12.3 5.8-12.6 5.5-1.2-1.2 9.7-16.6 16.4-23.4 4.1-3.9 7.6-7.2 7.8-7.2.3 0 .5 4.3.5 9.5zM18.2 183.2c-.8.8-1.2 5.4-1.2 14V210h10v-5.9c0-3.3.5-6.3 1-6.6.6-.3 4.2 1.1 8 3.1l7 3.8 7.5-3.7c4.2-2 8-3.7 8.5-3.7.6 0 1 2.9 1 6.5v6.5h10v-13.5c0-16.4.7-16-15.3-7.6l-11.2 5.9-11.5-6.4c-6.3-3.5-11.7-6.3-12-6.4-.4 0-1.1.5-1.8 1.2zM79 196v14h11v-28H79v14zm21.3-13.3c-1 .3-1.3 4.1-1.3 13.9V210h10v-6.4c0-3.6.3-6.7.8-6.9.4-.3 7.4 2.6 15.6 6.5 8.2 3.8 15.5 6.7 16.3 6.4 1-.4 1.3-3.7 1.3-13.8v-13.3l-5 .3-5 .4v6.4c0 3.5-.4 6.4-1 6.4-.5 0-6.3-2.5-12.7-5.6-15.7-7.4-17.6-8.2-19-7.7zM153 196v14h5v-28h-5v14zm23.5-13.1c-8.2 2-13 6.8-13 13.1 0 5.2 2.8 8.8 9 11.6 9.9 4.6 25.6 3 32-3.1 3.1-2.9 3.5-3.8 3.5-8.3 0-4.3-.5-5.5-3.1-8.1-5.1-5.1-18.5-7.6-28.4-5.2zm20.9 4.6c2.3 1.1 4.4 3.1 5.4 5.2 1.4 3 1.4 3.6-.1 6.8-2.2 4.6-6.7 6.7-15.3 7.3-9.3.6-15.5-1.9-18.1-7.3-1.7-3.5-1.7-3.8.2-7.3 1.6-2.9 3.1-4.1 7-5.5 6.1-2.1 15.5-1.8 20.9.8z" fill="#c62b47"/></svg>