<svg preserveAspectRatio="xMidYMid meet" viewBox="0 0 600.000000 222.000000" height="222.000000pt" width="600.000000pt" xmlns="http://www.w3.org/2000/svg" version="1.0">
  <metadata>
    Created by potrace 1.16, written by Peter Selinger 2001-2019
  </metadata>
  <g stroke="none" fill="#0F87CE" transform="translate(0.000000,222.000000) scale(0.100000,-0.100000)">
    <path d="M755 2145 c-101 -102 -201 -145 -345 -146 -137 -1 -246 41 -349 137
-52 47 -61 53 -61 35 0 -12 14 -122 31 -244 35 -254 31 -245 146 -292 207 -83
479 -34 611 109 l41 45 56 -54 c58 -57 148 -106 230 -126 28 -6 93 -12 145
-12 155 0 273 44 367 139 l54 53 37 -42 c68 -77 82 -88 143 -117 199 -94 482
-51 623 94 l50 51 52 -53 c165 -164 472 -188 683 -52 28 17 64 49 81 69 l29
38 58 -56 c124 -120 299 -164 497 -126 102 19 186 65 249 136 l52 57 58 -54
c102 -95 213 -137 362 -137 160 -1 287 46 379 138 l53 53 39 -41 c49 -51 125
-100 188 -121 165 -56 393 -30 509 58 l42 32 36 249 c20 138 35 252 33 254 -1
1 -30 -26 -63 -62 -101 -107 -220 -159 -369 -158 -137 0 -255 52 -358 157
l-61 63 -42 -48 c-90 -108 -231 -172 -377 -172 -97 -1 -148 12 -234 57 -67 35
-113 73 -163 133 l-28 34 -47 -53 c-193 -221 -529 -231 -738 -21 -23 22 -47
41 -53 41 -6 0 -11 5 -11 11 0 6 -30 -20 -67 -58 -214 -217 -516 -216 -729 3
l-72 73 -41 -49 c-88 -105 -231 -171 -371 -171 -146 -1 -268 51 -370 157 l-61
63 -59 -63 c-202 -215 -542 -210 -742 12 -25 29 -48 51 -50 50 -1 -1 -34 -33
-73 -73z"></path>
  </g>
  <g stroke="none" fill="#00BBD1" transform="translate(0.000000,222.000000) scale(0.100000,-0.100000)">
    <path d="M811 1339 c-95 -105 -219 -159 -366 -159 -142 0 -278 59 -367 158
-47 52 -47 63 -7 -227 29 -214 32 -227 58 -248 44 -37 147 -73 234 -82 199
-20 366 33 471 150 l36 39 53 -52 c94 -95 224 -142 382 -140 156 2 269 45 362
138 l53 53 43 -46 c72 -80 78 -85 141 -113 106 -48 246 -61 370 -35 103 22
189 66 251 129 l53 55 25 -33 c14 -18 50 -49 80 -70 206 -142 526 -120 689 48
l50 51 53 -52 c97 -95 214 -138 370 -138 174 1 286 44 379 147 l52 58 56 -55
c98 -94 209 -136 364 -137 159 -1 283 44 378 138 l54 52 47 -48 c93 -95 218
-142 374 -142 109 1 201 20 273 59 83 45 82 42 121 313 19 135 33 247 31 249
-1 1 -30 -26 -63 -61 -97 -104 -221 -158 -360 -158 -146 1 -257 47 -361 150
l-65 66 -65 -66 c-105 -105 -212 -150 -360 -150 -139 0 -261 53 -360 156 l-61
63 -67 -67 c-107 -107 -214 -152 -362 -152 -139 0 -242 43 -352 147 l-70 66
-56 -62 c-126 -135 -309 -196 -476 -157 -102 24 -181 70 -261 151 l-70 71 -60
-61 c-105 -107 -217 -155 -360 -155 -144 0 -265 51 -365 156 l-61 63 -59 -63
c-98 -104 -220 -156 -366 -156 -146 0 -283 62 -377 171 -23 27 -44 49 -47 48
-3 0 -29 -27 -59 -60z"></path>
  </g>
</svg>
