<?xml version="1.0" standalone="no"?>
<!DOCTYPE svg PUBLIC "-//W3C//DTD SVG 20010904//EN"
 "http://www.w3.org/TR/2001/REC-SVG-20010904/DTD/svg10.dtd">
<svg version="1.0" xmlns="http://www.w3.org/2000/svg"
 width="331.000000pt" height="679.000000pt" viewBox="0 0 331.000000 679.000000"
 preserveAspectRatio="xMidYMid meet">
<metadata>
Created by potrace 1.16, written by Peter Selinger 2001-2019
</metadata>
<g transform="translate(0.000000,679.000000) scale(0.100000,-0.100000)"
fill="#000000" stroke="none">
<path d="M2849 6761 c-14 -16 -15 -39 -11 -164 11 -338 -66 -627 -288 -1082
-95 -196 -160 -293 -331 -500 -146 -177 -314 -399 -459 -607 -54 -79 -100
-135 -107 -133 -8 3 -13 -4 -13 -16 0 -10 -35 -68 -78 -127 -167 -228 -535
-805 -548 -858 -4 -15 16 -64 61 -150 63 -122 64 -127 28 -84 -21 25 -60 69
-87 98 l-50 53 -33 -53 c-92 -147 -358 -716 -349 -746 3 -9 26 -42 51 -72 125
-151 165 -202 165 -212 0 -5 -28 16 -62 47 -58 54 -164 115 -198 115 -24 0
-180 -530 -180 -612 0 -32 31 -56 113 -87 32 -12 73 -29 90 -38 49 -25 171
-120 186 -144 15 -25 32 -79 25 -79 -2 0 -29 20 -59 45 -92 75 -107 80 -225
80 l-105 0 -113 -54 c-136 -64 -186 -73 -231 -40 -35 25 -46 21 -37 -14 8 -35
53 -75 95 -87 55 -15 104 -12 251 16 94 17 151 23 187 19 60 -7 81 -25 31 -25
-49 -1 -100 -22 -186 -78 -42 -28 -90 -54 -107 -58 -33 -7 -55 -22 -55 -35 0
-18 74 -22 124 -6 27 9 51 15 53 14 1 -2 -45 -43 -102 -91 -59 -48 -103 -92
-99 -98 21 -34 208 48 324 142 85 69 156 97 214 86 30 -6 36 -11 31 -24 -3 -9
-49 -188 -101 -397 -63 -251 -111 -419 -141 -495 -53 -135 -62 -203 -25 -208
25 -4 126 39 155 66 45 40 94 173 188 502 85 299 118 400 129 400 5 0 21 -39
36 -87 32 -107 88 -218 150 -296 45 -59 123 -117 155 -117 16 0 16 4 -2 60
-10 33 -27 129 -38 212 -11 84 -23 162 -27 173 -16 39 75 -45 181 -169 110
-127 130 -145 182 -157 49 -11 49 7 0 54 -43 42 -95 124 -152 237 -42 82 -110
166 -160 196 -25 14 -45 28 -45 31 0 9 153 -7 208 -22 82 -21 132 -55 184
-125 93 -125 101 -132 130 -128 26 3 26 4 -44 98 -92 125 -165 200 -236 239
l-57 32 71 -5 c94 -6 177 -29 288 -78 144 -63 217 -88 267 -88 l45 0 23 98
c142 609 202 823 322 1147 153 416 361 1009 363 1035 1 24 -2 25 -48 23 -28
-1 -101 -20 -175 -46 -69 -25 -211 -72 -316 -106 -104 -34 -226 -77 -269 -96
-44 -19 -81 -33 -83 -31 -9 8 174 99 352 176 208 89 443 208 545 276 80 52 98
82 140 234 17 63 54 180 81 260 91 264 164 591 223 1000 51 356 55 490 21 860
-17 198 -84 462 -150 592 -56 111 -182 288 -205 288 -9 0 -26 9 -38 20 -25 23
-22 23 -43 1z m57 -517 c-12 -189 -71 -463 -136 -638 l-22 -59 -19 54 c-26 72
-24 83 16 168 20 41 51 120 70 177 35 103 85 327 85 378 0 14 3 26 6 26 4 0 4
-48 0 -106z m173 -655 c-37 -90 -61 -117 -161 -174 -42 -25 -79 -49 -83 -55
-3 -5 -10 -10 -14 -10 -5 0 8 47 28 104 l36 104 53 22 c29 12 55 20 58 17 3
-3 -2 -22 -10 -42 -20 -46 -20 -51 -2 -35 8 6 23 32 32 57 12 30 29 52 53 68
20 12 37 22 38 21 1 -1 -11 -36 -28 -77z m141 -253 c0 -19 -9 -106 -20 -193
-17 -134 -24 -161 -42 -176 -11 -10 -22 -16 -24 -15 -1 2 4 48 11 103 18 122
18 142 5 129 -5 -5 -18 -65 -29 -132 -13 -86 -24 -128 -37 -143 -10 -12 -103
-63 -206 -115 -194 -97 -274 -144 -344 -201 -23 -18 -43 -33 -45 -33 -2 0 19
48 48 108 64 131 135 297 159 374 14 47 23 59 48 69 17 7 65 31 106 55 41 23
86 45 100 49 13 4 48 24 77 43 29 19 56 33 59 29 3 -3 -4 -23 -15 -46 -18 -34
-35 -47 -119 -90 -54 -28 -111 -65 -128 -82 -24 -25 4 -13 163 68 109 56 183
99 173 101 -10 2 -33 -4 -50 -13 -40 -20 -46 -15 -26 23 16 30 111 122 127
122 5 0 9 -15 9 -34z m-666 -82 c20 -79 20 -147 0 -190 -9 -19 -18 -33 -20
-31 -4 3 -50 154 -61 193 -6 24 45 110 58 97 4 -4 15 -36 23 -69z m529 -420
c-10 -27 -117 -90 -322 -190 -107 -52 -221 -112 -253 -134 -32 -22 -60 -40
-63 -40 -2 0 0 10 6 23 5 12 36 36 67 53 31 17 100 58 152 91 52 33 145 82
205 108 61 26 128 60 150 75 46 33 67 37 58 14z m-883 -85 c0 -18 -30 -71 -91
-161 -50 -73 -105 -154 -122 -180 -18 -26 -35 -48 -39 -48 -4 0 -17 18 -29 41
l-20 41 56 71 c30 40 92 120 137 179 63 82 85 104 95 96 7 -6 13 -23 13 -39z
m870 11 c0 -22 -58 -64 -146 -105 -220 -103 -386 -189 -445 -230 -65 -45 -87
-51 -54 -14 29 31 159 106 370 212 105 53 206 108 225 121 39 28 50 31 50 16z
m-833 -117 c13 -32 30 -81 39 -110 l15 -52 -37 -78 c-20 -43 -56 -121 -81
-173 -24 -52 -60 -124 -80 -160 l-36 -64 -22 84 c-13 47 -35 119 -50 160 l-28
75 100 150 c55 83 111 169 124 192 13 23 26 40 28 38 2 -3 15 -31 28 -62z
m800 -73 l-14 -64 -184 -67 c-289 -104 -377 -146 -517 -246 -22 -16 -22 -13 8
48 28 57 41 70 104 111 39 26 193 109 341 186 303 155 287 153 262 32z m-28
-125 c-8 -6 -76 -33 -152 -59 -215 -72 -398 -163 -531 -265 l-59 -45 7 30 c4
16 21 41 39 57 51 44 276 151 497 236 184 71 239 84 199 46z m-34 -175 c-16
-65 -31 -123 -34 -129 -4 -6 -92 -33 -196 -61 -258 -70 -400 -114 -480 -150
-38 -17 -70 -29 -72 -27 -8 9 63 167 73 163 7 -3 27 6 47 19 181 123 674 349
686 314 2 -6 -9 -64 -24 -129z m-1025 -25 c10 -24 35 -100 55 -167 l36 -123
-24 -54 -24 -54 -22 94 c-12 52 -39 138 -60 192 l-39 98 25 29 c14 17 27 30
29 30 3 0 13 -20 24 -45z m-57 -150 c19 -49 43 -124 52 -165 9 -41 20 -84 24
-95 8 -23 3 -55 -9 -55 -4 0 -13 21 -19 48 -17 67 -58 175 -98 255 -33 66 -33
68 -16 91 10 14 21 21 24 18 4 -4 23 -47 42 -97z m-55 -67 c73 -167 110 -298
83 -298 -5 0 -22 33 -36 73 -15 39 -50 117 -76 173 -27 55 -49 105 -49 110 0
11 21 34 31 34 3 0 24 -42 47 -92z m1085 53 c-6 -25 -17 -29 -283 -105 -252
-72 -333 -100 -428 -151 -36 -19 -67 -33 -70 -31 -14 15 31 53 101 86 103 48
152 65 416 140 118 33 221 65 230 70 26 15 40 11 34 -9z m-48 -101 c-11 -22
-24 -31 -53 -35 -290 -50 -459 -112 -651 -239 -47 -31 -86 -54 -88 -52 -2 1 6
23 17 48 19 44 25 48 123 91 88 38 343 125 577 195 91 28 93 28 75 -8z m-1125
-120 l42 -98 -26 -35 c-32 -42 -78 -75 -84 -59 -2 6 -21 47 -43 92 -21 45 -39
85 -39 89 0 4 19 36 41 70 32 46 45 59 54 51 7 -6 32 -55 55 -110z m-205 19
c16 -30 16 -31 -36 -102 -131 -180 -121 -171 -140 -136 -7 15 -8 28 -1 43 18
41 144 226 152 226 5 0 17 -14 25 -31z m1285 21 c0 -19 -37 -84 -58 -103 -11
-11 -83 -43 -159 -72 -241 -92 -461 -215 -610 -342 -29 -24 -53 -41 -53 -37 0
25 126 291 136 287 6 -2 31 9 55 26 132 88 313 165 511 216 142 36 178 41 178
25z m-1208 -171 c44 -85 47 -113 16 -146 -12 -13 -18 -26 -14 -30 4 -5 17 3
28 16 16 21 21 22 29 10 5 -7 8 -25 5 -39 -2 -15 2 -29 12 -36 14 -10 13 -15
-7 -43 -26 -36 -23 -49 8 -30 30 19 36 6 36 -75 0 -69 -3 -78 -64 -202 -50
-98 -66 -123 -69 -105 -2 13 1 28 7 34 15 15 14 27 -2 21 -9 -3 -22 22 -41 78
-15 46 -30 88 -32 95 -3 6 4 14 15 18 31 9 26 25 -8 25 -25 0 -31 6 -46 48
-10 26 -35 80 -56 121 -22 41 -39 80 -39 86 0 7 30 51 68 100 37 48 74 98 82
111 8 13 19 23 25 21 5 -2 27 -37 47 -78z m440 29 c-23 -29 -177 -352 -302
-633 -73 -165 -146 -317 -162 -337 -16 -21 -24 -38 -19 -38 11 0 -30 -99 -58
-140 -10 -14 -23 -44 -30 -68 -6 -23 -26 -58 -42 -77 -17 -19 -26 -35 -19 -35
15 0 4 -17 -21 -30 -17 -10 -17 -6 7 47 14 32 41 92 59 133 45 103 231 500
357 760 57 118 126 263 153 322 28 59 57 109 65 111 21 5 25 0 12 -15z m665
-52 c-10 -14 -48 -36 -99 -56 -218 -86 -549 -272 -680 -382 l-51 -42 17 32
c16 30 32 45 126 114 96 71 148 106 225 153 99 60 469 228 473 214 2 -5 -3
-20 -11 -33z m143 31 c0 -7 -9 -23 -20 -34 -26 -28 -230 -136 -452 -240 -188
-87 -267 -133 -385 -221 -79 -59 -95 -77 -35 -41 182 110 288 167 484 260 126
59 260 126 299 148 40 23 74 40 76 37 3 -2 0 -14 -6 -25 -14 -26 -119 -83
-496 -270 -165 -82 -345 -176 -400 -209 -55 -33 -101 -59 -103 -57 -9 9 40 83
69 104 240 177 359 250 557 341 232 106 369 180 387 210 9 14 25 12 25 -3z
m-1465 -552 l26 -50 -21 -17 c-19 -16 -27 -38 -13 -38 3 0 14 7 24 16 16 14
18 14 29 -6 6 -12 10 -23 8 -24 -22 -16 -80 -47 -82 -45 -2 2 -17 34 -34 70
-16 36 -48 98 -71 137 -22 39 -41 74 -41 79 0 4 14 32 31 62 l31 54 44 -94
c24 -52 55 -116 69 -144z m-163 42 c34 -54 56 -105 133 -309 76 -200 80 -218
65 -263 -13 -38 -30 -38 -30 0 0 80 -99 375 -180 534 -16 33 -30 65 -30 71 0
21 16 9 42 -33z m1463 6 c-4 -16 -7 -28 -8 -29 -1 0 -168 -56 -372 -123 -203
-67 -376 -125 -382 -127 -7 -3 -13 -1 -13 4 0 17 49 43 149 79 53 20 114 42
136 50 22 8 96 32 165 53 69 22 168 57 220 79 52 22 99 40 104 40 4 1 5 -11 1
-26z m-1500 -57 c44 -75 103 -230 140 -369 20 -73 42 -149 50 -169 11 -29 12
-44 4 -65 -10 -27 -12 -24 -44 65 -45 125 -85 221 -157 380 l-61 132 19 35
c10 19 20 35 21 35 1 0 14 -20 28 -44z m1475 -7 c0 -6 -8 -34 -17 -61 -20 -56
-58 -92 -73 -68 -7 11 -11 8 -20 -11 -10 -21 -41 -37 -170 -87 -87 -34 -196
-73 -241 -86 -46 -13 -103 -31 -126 -40 -24 -8 -43 -13 -43 -11 0 21 28 55 49
60 50 13 416 148 461 171 25 12 54 30 65 39 l20 17 -20 -7 c-260 -91 -569
-194 -573 -190 -3 2 2 15 11 28 12 19 54 35 204 81 191 59 402 137 438 162 24
17 35 18 35 3z m-1186 -185 c41 -81 44 -120 11 -183 -15 -28 -29 -50 -31 -48
-7 7 -84 220 -84 232 0 11 53 51 70 54 3 1 18 -24 34 -55z m-390 -109 c29 -38
76 -107 106 -153 43 -68 51 -85 39 -93 -21 -13 -21 -13 -64 52 -22 34 -75 94
-119 134 l-78 74 18 39 c23 48 26 46 98 -53z m1436 73 c0 -7 -4 -18 -8 -24
-18 -28 -512 -217 -512 -195 0 3 10 18 23 33 17 20 59 38 177 77 85 28 189 67
230 85 87 39 90 40 90 24z m-47 -119 c-3 -11 -15 -26 -27 -34 -52 -34 -426
-171 -519 -190 l-32 -7 30 30 c22 23 74 46 203 92 94 33 207 76 250 95 92 40
102 42 95 14z m-45 -131 c-19 -88 -71 -229 -87 -237 -9 -5 -77 -18 -151 -30
-242 -39 -381 -63 -411 -71 -35 -10 -35 -6 -9 60 23 58 23 60 11 60 -5 0 -19
-27 -31 -60 -21 -57 -44 -89 -56 -77 -10 10 64 157 79 157 48 0 518 169 614
220 21 11 41 20 44 20 4 0 3 -19 -3 -42z m-1694 -262 c120 -141 336 -528 321
-576 -10 -33 -20 -23 -39 39 -32 107 -201 381 -301 490 -43 46 -55 65 -50 81
3 11 10 20 14 20 5 0 29 -24 55 -54z m1596 -40 c0 -15 -4 -16 -180 -37 -111
-13 -353 -46 -392 -55 -31 -6 -38 10 -10 21 9 4 82 15 162 26 80 11 195 28
255 38 140 24 165 25 165 7z m-1004 -176 c-36 -71 -72 -140 -80 -152 -9 -12
-16 -28 -16 -35 0 -7 -18 -52 -39 -100 -48 -106 -151 -384 -217 -584 -41 -124
-55 -154 -91 -195 l-43 -49 18 45 c10 25 31 82 47 128 16 45 32 82 37 82 4 0
8 11 8 24 0 60 361 926 397 954 44 33 39 5 -21 -118z m984 106 c0 -20 -28 -46
-49 -46 -83 0 -518 -37 -556 -47 -15 -4 -17 -2 -9 6 6 6 102 25 215 41 112 17
238 36 279 44 101 19 120 19 120 2z m-26 -98 c-4 -13 -11 -26 -16 -29 -14 -9
-126 -17 -313 -24 -88 -3 -186 -8 -219 -11 -45 -4 -57 -2 -54 8 5 15 47 21
303 43 105 9 208 20 230 24 70 15 77 14 69 -11z m-24 -76 c0 -4 -16 -62 -35
-129 -19 -67 -40 -144 -46 -172 -6 -28 -14 -51 -17 -51 -4 0 -41 9 -82 20
-120 33 -299 46 -426 32 -59 -7 -109 -11 -111 -9 -3 4 106 248 116 259 4 4
112 15 241 23 129 8 255 19 280 24 60 12 80 13 80 3z m-1553 -74 c56 -47 173
-177 173 -193 0 -5 -16 -28 -34 -50 l-34 -40 -64 60 c-50 49 -108 97 -147 122
-6 4 39 143 47 143 4 0 30 -19 59 -42z m921 13 c-1 -4 -28 -63 -58 -131 -42
-93 -61 -125 -79 -131 -13 -5 -25 -8 -27 -6 -2 2 20 62 48 134 45 118 53 132
77 136 14 2 30 5 34 6 5 0 7 -3 5 -8z m342 -341 c105 -23 163 -43 168 -58 6
-18 -33 -14 -137 13 -190 50 -403 55 -616 14 -55 -10 -102 -19 -105 -19 -3 0
8 9 24 19 85 56 468 74 666 31z m-149 -134 c108 -15 211 -38 254 -58 30 -14
31 -31 6 -120 -12 -44 -14 -69 -8 -71 7 -2 5 -37 -6 -105 -9 -55 -17 -115 -17
-132 0 -16 -2 -30 -5 -30 -3 0 -33 14 -66 31 -195 98 -356 141 -541 143 -84 1
-123 4 -117 11 6 6 81 10 184 10 96 0 168 3 161 7 -46 26 -274 34 -330 12 -14
-5 -17 -3 -14 12 3 17 15 19 118 22 160 5 244 -10 415 -73 11 -4 0 7 -25 24
-59 41 -151 69 -269 82 -140 16 -151 19 -140 47 8 20 15 22 76 22 143 0 320
-53 433 -129 33 -22 60 -35 60 -31 0 17 -45 52 -110 86 -36 20 -84 46 -106 60
-43 25 -141 43 -244 44 -80 1 -85 6 -70 71 7 30 17 60 23 67 13 17 202 16 338
-2z"/>
</g>
</svg>
