<svg xmlns="http://www.w3.org/2000/svg" version="1.1" xmlns:xlink="http://www.w3.org/1999/xlink" xmlns:svgjs="http://svgjs.com/svgjs" width="400" height="400"><svg xmlns:dc="http://purl.org/dc/elements/1.1/" xmlns:cc="http://web.resource.org/cc/" xmlns:rdf="http://www.w3.org/1999/02/22-rdf-syntax-ns#" xmlns:svg="http://www.w3.org/2000/svg" xmlns="http://www.w3.org/2000/svg" xmlns:sodipodi="http://sodipodi.sourceforge.net/DTD/sodipodi-0.dtd" xmlns:inkscape="http://www.inkscape.org/namespaces/inkscape" id="SvgjsSvg1006" sodipodi:version="0.32" inkscape:version="0.44" width="400" height="400" sodipodi:docbase="/home/master" sodipodi:docname="Gomaisasa.svg" version="1.0">
  <metadata id="SvgjsMetadata1005">
    <rdf:rdf>
      <cc:work rdf:about="">
        <dc:format>image/svg+xml</dc:format>
        <dc:type rdf:resource="http://purl.org/dc/dcmitype/StillImage"></dc:type>
      </cc:work>
    </rdf:rdf>
  </metadata>
  <defs id="SvgjsDefs1004"></defs>
  <sodipodi:namedview inkscape:window-height="949" inkscape:window-width="1280" inkscape:pageshadow="2" inkscape:pageopacity="0.0" guidetolerance="10.0" gridtolerance="10.0" objecttolerance="10.0" borderopacity="1.0" bordercolor="#666666" pagecolor="#ffffff" id="SvgjsSodipodi:namedview1003" inkscape:zoom="1" inkscape:cx="174.5" inkscape:cy="177.5" inkscape:window-x="0" inkscape:window-y="25" inkscape:current-layer="Gomaisasa, traced from a JPEG file by Misogi."></sodipodi:namedview>
  <g id="SvgjsG1002" transform="translate(-248.9016,1.28696)">
    <path style="fill:#000000" d="M 248.90161,198.71304 L 248.90161,-1.2869592 L 448.90161,-1.2869592 L 648.90161,-1.2869592 L 648.90161,198.71304 L 648.90161,398.71304 L 448.90161,398.71304 L 248.90161,398.71304 L 248.90161,198.71304 z " id="SvgjsPath1001"></path>
    <path style="fill:#FFFFFF" d="M 404.42206,212.58401 C 400.9288,193.75172 401.6796,173.87753 406.45715,158.71304 C 412.49718,140.03413 423.23323,123.17806 443.25645,119.08012 L 446.32096,118.63398 L 447.17896,303.22917 L 450.83709,303.22917 L 450.83709,118.52923 L 454.55694,118.91803 C 477.78169,121.34549 494.34268,144.58812 497.97987,179.86023 C 499.72985,223.22815 475.84139,280.80884 448.72505,314.82935 C 427.81153,284.25493 412.98798,248.44105 404.42206,212.58401 z M 548.25429,267.48229 C 533.02693,260.76468 522.34813,255.27093 515.68898,250.72896 C 509.59875,246.57501 496.96475,234.93496 496.31113,232.87561 C 496.10055,232.21214 496.93335,227.66543 498.16178,222.77181 C 501.15463,210.84948 502.43243,201.49838 502.53775,190.74794 L 502.62527,181.81509 L 509.02506,188.16729 C 529.90465,209.15286 543.43197,236.09142 552.10711,264.14586 C 553.21359,268.51839 553.35023,268.72178 555.3132,268.918 C 557.35905,269.12251 557.3626,269.11754 556.92457,266.65994 C 549.1563,235.56296 532.54139,207.63897 510.7706,184.38384 C 504.94984,178.64127 501.80484,175.06736 501.80484,174.19535 C 501.80484,171.55047 499.74348,162.79193 497.6066,156.35735 C 494.32477,146.4751 488.34971,135.29603 483.77936,130.48723 C 483.02056,129.68885 482.55273,129.03562 482.73973,129.03562 C 484.31171,129.03562 496.13004,133.42509 500.51451,135.63738 C 508.16475,139.49749 512.94958,142.81842 518.23102,147.93354 C 520.72888,150.35273 523.10493,152.53392 523.51115,152.78062 C 525.35524,153.90058 534.68698,165.55921 539.27207,172.47158 C 553.55927,194.01056 559.49015,213.78753 560.87838,244.51949 C 561.28167,253.44723 560.35999,269.56379 559.34213,271.38261 C 559.02087,271.95667 555.94067,270.87316 548.25429,267.48229 z M 341.53473,269.81847 C 339.70503,263.90563 339.29021,237.92961 340.81914,225.00748 C 342.67192,206.47671 349.15768,189.24401 358.50339,173.23929 C 361.59952,168.5559 366.84241,159.49419 373.48377,153.27716 C 380.12513,147.06013 387.81474,142.2869 394.10834,138.18049 C 399.77198,134.48511 411.90497,129.99069 415.03064,129.28848 L 416.96613,128.85365 L 415.58338,130.39625 C 413.33223,132.90765 408.46423,140.78707 406.70198,144.77183 C 404.08484,150.68965 401.35979,159.80623 399.85143,167.69018 L 398.45376,174.99557 L 389.91053,183.46721 C 367.7866,206.08073 351.84341,235.01198 344.04598,265.69397 C 343.62656,267.79249 343.66015,267.83197 345.69201,267.62945 C 347.68055,267.43125 347.81382,267.23627 348.92012,262.90659 C 356.85787,234.19439 372.20858,208.27463 392.36453,186.50203 L 397.86791,181.06521 L 397.90257,191.34074 C 397.94287,203.28685 398.95429,210.94775 402.17947,223.73594 C 404.94726,234.7105 405.25047,233.77278 396.60816,240.96579 C 385.46492,250.24031 374.35114,256.74374 354.70806,265.48441 C 342.57522,270.88321 341.92991,271.09551 341.53473,269.81847 z M 608.25645,215.04703 C 599.37627,213.48406 586.27226,209.99321 572.08189,205.41029 L 558.81056,201.12418 L 555.67833,193.62829 C 549.11258,177.91545 544.28346,169.68089 536.04008,160.14141 L 531.47433,154.85778 L 534.86538,156.18431 C 562.94795,166.88271 586.65521,185.25183 606.37434,207.61535 L 608.6178,210.38863 L 610.05953,208.85398 L 611.50127,207.31932 L 607.17602,202.20973 C 587.3596,178.93632 561.58359,162.18635 533.21187,151.27871 C 526.74078,149.12215 525.78098,148.57349 520.04925,143.75436 C 512.52919,137.43167 504.85353,132.35876 497.76489,129.02647 L 492.45,126.528 L 497.93387,126.36326 C 512.79394,125.91687 524.76636,127.45901 536.38102,131.31558 C 551.05207,136.187 569.44491,146.72969 581.30176,157.06397 C 592.38944,166.72784 603.56826,181.00552 609.86792,193.5489 C 612.59156,198.97199 616.64564,209.74127 617.58012,214.03562 C 618.02503,216.08019 617.98291,216.1309 615.88836,216.07232 C 614.70693,216.03927 611.27258,215.5779 608.25645,215.04703 z M 283.52992,212.7453 C 283.75129,211.59207 284.92625,207.7698 286.14095,204.25137 C 293.78686,182.1045 311.29922,160.14157 332.45,146.17341 C 349.32578,135.0285 364.47593,128.74207 380.83709,126.09556 C 387.68737,124.9875 401.76084,124.65549 407.5298,125.46585 L 410.99669,125.95285 L 406.56206,127.73641 C 397.69316,131.30339 387.49536,137.44324 379.96691,143.74872 C 376.56449,146.59841 374.27132,147.96631 371.60622,148.73591 C 340.87027,158.73481 314.2522,177.83768 293.03331,201.95987 L 289.40238,206.4538 L 290.92619,207.70536 L 292.45,208.95692 L 294.99717,205.93176 C 312.79843,184.74529 335.24442,168.87146 360.25711,157.34107 C 364.39562,155.58721 367.89404,154.26461 368.03138,154.40195 C 368.16873,154.53929 366.62183,156.50902 364.59384,158.77912 C 354.45583,170.12749 345.97898,184.34691 343.13644,194.77267 C 342.42126,197.39579 341.71116,199.66694 341.55843,199.81966 C 340.96164,200.41645 321.63909,206.62826 312.8558,209.04698 C 302.98812,211.76431 288.21657,214.84207 285.04256,214.84207 C 283.22943,214.84207 283.14886,214.73038 283.52992,212.7453 z " id="SvgjsPath1000" sodipodi:nodetypes="csccccccssscssscccssssssssssssssccsssscccscccssscccssscccccccccccccsscccsssssccssscccsscccccsssssssc"></path>
  </g>
</svg></svg>