<svg xmlns="http://www.w3.org/2000/svg" xmlns:xlink="http://www.w3.org/1999/xlink" xmlns:svgjs="http://svgjs.com/svgjs" width="400" height="400"><svg xmlns="http://www.w3.org/2000/svg" width="400" height="400" version="1.0"><path style="fill:#05bf84" d="M404.422 212.584c-3.493-18.832-2.742-38.706 2.035-53.871 6.04-18.679 16.776-35.535 36.8-39.633l3.064-.446.858 184.595h3.658v-184.7l3.72.389c23.225 2.427 39.786 25.67 43.423 60.942 1.75 43.368-22.139 100.949-49.255 134.97-20.913-30.575-35.737-66.389-44.303-102.246zm143.832 54.898c-15.227-6.717-25.906-12.211-32.565-16.753-6.09-4.154-18.724-15.794-19.378-17.853-.21-.664.622-5.21 1.85-10.104 2.994-11.923 4.271-21.274 4.377-32.024l.087-8.933 6.4 6.352c20.88 20.986 34.407 47.924 43.082 75.979 1.107 4.372 1.243 4.576 3.206 4.772 2.046.205 2.05.2 1.612-2.258-7.769-31.097-24.384-59.021-46.154-82.276-5.821-5.743-8.966-9.317-8.966-10.189 0-2.645-2.062-11.403-4.198-17.838-3.282-9.882-9.257-21.061-13.828-25.87-.758-.798-1.226-1.451-1.04-1.451 1.573 0 13.391 4.39 17.776 6.601 7.65 3.86 12.435 7.181 17.716 12.297 2.498 2.419 4.874 4.6 5.28 4.847 1.844 1.12 11.176 12.778 15.761 19.69 14.287 21.54 20.218 41.317 21.606 72.048.404 8.928-.518 25.045-1.536 26.864-.321.574-3.401-.51-11.088-3.9zm-206.72 2.336c-1.829-5.912-2.244-31.888-.715-44.81 1.853-18.531 8.339-35.764 17.684-51.769 3.097-4.683 8.34-13.745 14.98-19.962 6.642-6.217 14.332-10.99 20.625-15.097 5.664-3.695 17.797-8.19 20.923-8.892l1.935-.434-1.383 1.542c-2.25 2.512-7.119 10.391-8.881 14.376-2.617 5.918-5.342 15.034-6.85 22.918l-1.398 7.306-8.543 8.471c-22.124 22.614-38.068 51.545-45.865 82.227-.42 2.098-.386 2.138 1.646 1.935 1.989-.198 2.122-.393 3.228-4.722 7.938-28.713 23.289-54.632 43.445-76.405l5.503-5.437.035 10.276c.04 11.946 1.051 19.607 4.276 32.395 2.768 10.975 3.071 10.037-5.57 17.23-11.144 9.274-22.258 15.778-41.9 24.518-12.134 5.4-12.78 5.612-13.174 4.334zm266.722-54.771c-8.88-1.563-21.984-5.054-36.174-9.637l-13.271-4.286-3.133-7.496c-6.565-15.713-11.395-23.947-19.638-33.487l-4.566-5.283 3.391 1.326c28.083 10.699 51.79 29.068 71.51 51.431l2.243 2.774 1.442-1.535 1.441-1.535-4.325-5.11c-19.816-23.273-45.592-40.023-73.964-50.93-6.471-2.157-7.431-2.706-13.163-7.525-7.52-6.322-15.195-11.395-22.284-14.728l-5.315-2.498 5.484-.165c14.86-.446 26.832 1.096 38.447 4.953 14.671 4.871 33.064 15.414 44.92 25.748 11.088 9.664 22.267 23.942 28.567 36.485 2.724 5.423 6.778 16.192 7.712 20.487.445 2.044.403 2.095-1.692 2.036-1.181-.033-4.615-.494-7.632-1.025zm-324.726-2.302c.221-1.153 1.396-4.975 2.611-8.494 7.646-22.147 25.158-44.11 46.309-58.078 16.876-11.144 32.026-17.43 48.387-20.077 6.85-1.109 20.924-1.44 26.693-.63l3.467.487-4.435 1.783c-8.869 3.567-19.067 9.707-26.595 16.013-3.403 2.85-5.696 4.217-8.36 4.987-30.737 9.999-57.355 29.102-78.574 53.224l-3.63 4.494 1.523 1.251 1.524 1.252 2.547-3.025c17.801-21.187 40.247-37.06 65.26-48.59 4.139-1.755 7.637-3.077 7.774-2.94.138.137-1.41 2.107-3.437 4.377-10.138 11.348-18.615 25.568-21.458 35.994-.715 2.623-1.425 4.894-1.578 5.047-.596.596-19.919 6.808-28.702 9.227-9.868 2.717-24.64 5.795-27.813 5.795-1.814 0-1.894-.112-1.513-2.097z" transform="translate(-248.902 1.287)"/></svg></svg>