<svg width="512" height="512" xmlns="http://www.w3.org/2000/svg">

 <g>
  <title>Layer 1</title>
  <path id="svg_4" d="m256,456c-110.49724,0 -200,-89.50276 -200,-200c0,-110.49724 89.50276,-200 200,-200c110.49724,0 200,89.50276 200,200c0,110.49724 -89.50276,200 -200,200z" opacity="undefined" stroke-width="5" stroke="#000" fill="none"/>
  <path id="svg_3" d="m56,56l400,0l0,400l-400,0l0,-400z" opacity="undefined" stroke-width="5" fill="none"/>
  <path id="svg_22" d="m56,256c0,-44.1989 89.50276,-80 200,-80c110.49724,0 200,35.8011 200,80l-400,0z" opacity="undefined" stroke-dasharray="5,5" stroke-width="3" stroke="#0000ff" fill="none"/>
  <line id="svg_5" y2="256" x2="456" y1="256" x1="56" stroke-width="3" stroke="#000" fill="none"/>
  <line transform="rotate(120 256 256)" id="svg_19" y2="256" x2="456" y1="256" x1="56" stroke-width="3" stroke="#000" fill="none"/>
  <line transform="rotate(60 256 256)" id="svg_18" y2="256" x2="456" y1="256" x1="56" stroke-width="3" stroke="#000" fill="none"/>
  <line id="svg_13" y2="256" x2="256" y1="256" x1="256" stroke-width="5" stroke="#ff0000" fill="none"/>
  <line id="svg_14" y2="256" x2="256" y1="256" x1="256" stroke-width="5" stroke="#ff0000" fill="none"/>
  <path id="svg_26" d="m156,83c0,-8.28729 44.75138,-15 100,-15c55.24862,0 100,6.71271 100,15l-200,0z" opacity="undefined" stroke-dasharray="5,5" stroke-width="3" stroke="#0000ff" fill="none"/>
  <g id="svg_17">
   <line id="svg_6" y2="82.8" x2="156" y1="256" x1="56" stroke-width="5" stroke="#000" fill="none"/>
   <line id="svg_7" y2="429.2" x2="156" y1="256" x1="56" stroke-width="5" stroke="#000" fill="none"/>
   <line id="svg_8" y2="429.2" x2="357" y1="429" x1="157" stroke-width="5" stroke="#000" fill="none"/>
   <line id="svg_9" y2="83" x2="356" y1="83" x1="156" stroke-width="5" stroke="#000" fill="none"/>
   <line id="svg_10" y2="256" x2="456" y1="83" x1="356" stroke-width="5" stroke="#000" fill="none"/>
   <line id="svg_11" y2="256" x2="456" y1="429" x1="356" stroke-width="5" stroke="#000" fill="none"/>
  </g>
  <rect id="svg_16" height="1" width="1" y="255.5" x="255.5" stroke-width="5" stroke="#ff0000" fill="none"/>
  <text xml:space="preserve" text-anchor="start" font-family="Noto Sans JP" font-size="24" id="svg_20" y="185" x="249.33972" stroke-width="3" stroke="#000" fill="#000000">2</text>
  <text xml:space="preserve" text-anchor="start" font-family="Noto Sans JP" font-size="24" id="svg_25" y="77.76984" x="249.33975" stroke-width="3" stroke="#000000" fill="#0000ff">1</text>
 </g>
</svg>